<svg width="80" height="80" viewBox="0 0 80 80" fill="none" xmlns="http://www.w3.org/2000/svg">
<circle cx="40" cy="40" r="38.5" fill="#FCFCFC" stroke="#3D3BB3" stroke-width="3"/>
<path d="M25 40C25 37.28 25.67 34.77 27.01 32.47C28.35 30.17 30.17 28.35 32.47 27.01C34.77 25.67 37.28 25 40 25C42.72 25 45.23 25.67 47.53 27.01C49.83 28.35 51.65 30.17 52.99 32.47C54.33 34.77 55 37.28 55 40C55 42.72 54.33 45.23 52.99 47.53C51.65 49.83 49.83 51.65 47.53 52.99C45.23 54.33 42.72 55 40 55C37.28 55 34.77 54.33 32.47 52.99C30.17 51.65 28.35 49.83 27.01 47.53C25.67 45.23 25 42.72 25 40ZM27.49 40C27.49 43.12 28.54 45.87 30.64 48.25C31.6 46.37 33.12 44.58 35.2 42.88C37.28 41.18 39.31 40.11 41.29 39.67C40.99 38.97 40.7 38.34 40.42 37.78C36.98 38.88 33.26 39.43 29.26 39.43C28.48 39.43 27.9 39.42 27.52 39.4C27.52 39.48 27.515 39.58 27.505 39.7C27.495 39.82 27.49 39.92 27.49 40ZM27.88 36.91C28.32 36.95 28.97 36.97 29.83 36.97C33.17 36.97 36.34 36.52 39.34 35.62C37.82 32.92 36.15 30.67 34.33 28.87C32.75 29.67 31.395 30.78 30.265 32.2C29.135 33.62 28.34 35.19 27.88 36.91ZM32.35 49.87C34.61 51.63 37.16 52.51 40 52.51C41.48 52.51 42.95 52.23 44.41 51.67C44.01 48.25 43.23 44.94 42.07 41.74C40.23 42.14 38.375 43.15 36.505 44.77C34.635 46.39 33.25 48.09 32.35 49.87ZM36.94 27.91C38.7 29.73 40.33 32 41.83 34.72C44.55 33.58 46.6 32.13 47.98 30.37C45.66 28.45 43 27.49 40 27.49C38.98 27.49 37.96 27.63 36.94 27.91ZM42.91 36.85C43.21 37.49 43.55 38.3 43.93 39.28C45.41 39.14 47.02 39.07 48.76 39.07C50 39.07 51.23 39.1 52.45 39.16C52.29 36.44 51.31 34.02 49.51 31.9C48.21 33.84 46.01 35.49 42.91 36.85ZM44.68 41.38C45.7 44.34 46.39 47.38 46.75 50.5C48.33 49.48 49.62 48.17 50.62 46.57C51.62 44.97 52.22 43.24 52.42 41.38C50.96 41.28 49.63 41.23 48.43 41.23C47.33 41.23 46.08 41.28 44.68 41.38Z" fill="#192029"/>
<g style="mix-blend-mode:lighten">
<rect x="21" y="22" width="39" height="39" fill="#3D3BB3"/>
</g>
</svg>
